<?xml version="1.0" encoding="UTF-8"?>
<svg width="15px" height="12px" viewBox="0 0 15 12" version="1.1" xmlns="http://www.w3.org/2000/svg" xmlns:xlink="http://www.w3.org/1999/xlink">
    <!-- Generator: Sketch 43.1 (39012) - http://www.bohemiancoding.com/sketch -->
    <title>ic_photo_camera copy@2x</title>
    <desc>Created with Sketch.</desc>
    <defs></defs>
    <g id="Page-1" stroke="none" stroke-width="1" fill="none" fill-rule="evenodd">
        <g id="领队管理-创建领队" transform="translate(-599.000000, -194.000000)" fill="#FFFFFF">
            <g id="Group-6" transform="translate(596.000000, 183.000000)">
                <g id="ic_photo_camera-copy" transform="translate(3.000000, 11.000000)">
                    <g id="Icon-24px">
                        <ellipse id="Oval" cx="7.5" cy="6.75" rx="2.4" ry="2.4"></ellipse>
                        <path d="M5.25,0 L3.8775,1.33333333 L1.5,1.33333333 C0.675,1.33333333 0,1.93333333 0,2.66666667 L0,10.6666667 C0,11.4 0.675,12 1.5,12 L13.5,12 C14.325,12 15,11.4 15,10.6666667 L15,2.66666667 C15,1.93333333 14.325,1.33333333 13.5,1.33333333 L11.1225,1.33333333 L9.75,0 L5.25,0 L5.25,0 Z M7.5,10.5 C5.43,10.5 3.75,8.82 3.75,6.75 C3.75,4.68 5.43,3 7.5,3 C9.57,3 11.25,4.68 11.25,6.75 C11.25,8.82 9.57,10.5 7.5,10.5 L7.5,10.5 Z" id="Shape"></path>
                    </g>
                </g>
            </g>
        </g>
    </g>
</svg>