<?xml version="1.0" encoding="UTF-8"?>
<svg width="11px" height="12px" viewBox="0 0 11 12" version="1.1" xmlns="http://www.w3.org/2000/svg" xmlns:xlink="http://www.w3.org/1999/xlink">
    <!-- Generator: Sketch 43.1 (39012) - http://www.bohemiancoding.com/sketch -->
    <title>服务区</title>
    <desc>Created with Sketch.</desc>
    <defs></defs>
    <g id="Page-1" stroke="none" stroke-width="1" fill="none" fill-rule="evenodd">
        <g id="路书-Tips状态-Copy" transform="translate(-124.000000, -674.000000)" fill="#687372">
            <g id="Group-15" transform="translate(82.000000, 588.000000)">
                <g id="服务区" transform="translate(42.000000, 86.000000)">
                    <path d="M4.57364905,6.02026218 C4.43819326,5.87103234 4.30260812,5.72190906 4.16440757,5.56980197 C4.140567,5.59605673 4.12378232,5.6137597 4.10788862,5.63214203 C2.78429895,7.16217754 1.46046497,8.69205321 0.138412931,10.2232343 C0.0873691115,10.2823508 0.0534404941,10.3541617 0.0115362939,10.4200584 L0.0115362939,10.6027094 C0.114802294,10.9921083 0.449173773,11.1099284 0.815303921,11.1904643 C0.846631494,11.197351 0.877887194,11.2045041 0.909171655,11.2115373 L1.08431862,11.2115373 C1.277831,11.1961388 1.38247657,11.0734301 1.49024052,10.9411174 C2.01989196,10.2908226 2.55578015,9.64488372 3.08949841,8.99741293 C3.73172788,8.21830872 4.37308077,7.43857844 5.01786819,6.66129914 C5.07085201,6.59742722 5.06899822,6.55955696 5.0119763,6.5003206 C4.86147466,6.34392431 4.71926476,6.18069459 4.57364905,6.02026218 Z" id="Shape"></path>
                    <path d="M10.354476,10.1147519 C7.39777166,6.78339508 4.44109609,3.45202492 1.48567073,0.119695671 C1.44082057,0.0691176309 1.3961285,0.0395061117 1.32293984,0.0377477947 C1.00576978,0.0301151395 0.688786549,0.0143835941 0.371602118,0.00932179902 C0.155355684,0.0058717869 0.0417142244,0.116924997 0.0415992532,0.317931732 C0.0413549585,0.764275897 0.0404639908,1.21063338 0.0459391204,1.65692427 C0.0465714133,1.70843474 0.0730848819,1.7693495 0.109010997,1.809391 C0.915968863,2.70875292 1.72588705,3.60582371 2.53535974,4.50325415 C2.74559933,4.7363367 2.95622691,4.9691262 3.16615035,5.20144948 C3.27118392,5.15352223 3.36551151,5.10070635 3.46716802,5.06669904 C3.58251957,5.02810948 3.70282892,4.99334291 3.82389991,4.98047528 C3.98762237,4.96307867 4.04828001,5.01004685 4.11412538,5.15257647 C4.12961671,5.18610423 4.15500929,5.21623526 4.1788786,5.24583347 C5.66370466,7.08665017 7.15055694,8.92608152 8.63102874,10.7699087 C8.76046332,10.9311137 8.92053569,11.0321498 9.11492468,11.0979932 C9.45261572,11.2123632 9.78773446,11.214348 10.1082816,11.0497196 C10.4463031,10.8761132 10.5769305,10.3654043 10.354476,10.1147519 Z" id="Shape"></path>
                    <path d="M6.32435705,5.0722537 C6.54561877,4.80357871 6.76821693,4.53583614 6.98858767,4.26653508 C7.30337223,3.88186495 7.71241253,3.63706033 8.22401468,3.53883477 C8.50028646,3.48579244 8.77129864,3.41127742 8.9995444,3.25224367 C9.10151706,3.1812053 9.19253944,3.08681606 9.2611152,2.98685884 C9.35437937,2.85090956 9.41589924,2.69665787 9.50062737,2.55520722 C9.80663158,2.0443784 10.1167745,1.53569416 10.4250492,1.02603754 C10.4670684,0.956570999 10.4428111,0.850246566 10.3716487,0.801413527 C10.2862164,0.742776572 10.2394406,0.808153713 10.1887704,0.855108561 C10.1604175,0.881376639 10.133243,0.908896837 10.1075199,0.937389441 C9.71414341,1.37281078 9.31832392,1.8064072 8.93050877,2.24603782 C8.86051035,2.32538819 8.78910361,2.34143943 8.69362639,2.32233779 C8.59094957,2.30179755 8.55798378,2.24390654 8.60950182,2.15965421 C8.64518363,2.101297 8.6892003,2.04597685 8.73725506,1.99567855 C9.11442171,1.60085817 9.49338467,1.20750306 9.87201711,0.813894847 C9.94667157,0.736289465 9.94031982,0.678891326 9.84583416,0.592920644 C9.77850863,0.531672867 9.71661514,0.535562468 9.64150083,0.613660706 C9.53231421,0.727204864 9.42605914,0.843213324 9.32026394,0.95950151 C9.01928937,1.29029012 8.71947882,1.62199785 8.4184324,1.95273316 C8.35982973,2.01711127 8.14627058,2.05448866 8.097641,2.00109999 C8.01650547,1.91201232 8.12329225,1.85815743 8.1606554,1.7924606 C8.17067159,1.77485087 8.1869533,1.76011837 8.20129501,1.74481309 C8.54073925,1.38228167 8.88021223,1.01975025 9.21998699,0.657458596 C9.28599043,0.587072939 9.35328722,0.517726285 9.4214175,0.446408196 C9.39174254,0.409909957 9.3722562,0.381137627 9.34774023,0.356694461 C9.27356,0.282725587 9.23198632,0.285096634 9.16310878,0.36347461 C8.79687804,0.780193927 8.42331836,1.19165163 8.06862708,1.61664301 C7.96047513,1.7462384 7.84395957,1.7578539 7.69834386,1.7333841 C7.57580709,1.71277724 7.54825895,1.64773312 7.62417801,1.55337052 C7.67200284,1.49392101 7.7246849,1.43701572 7.78113199,1.38446625 C8.14917341,1.04186234 8.51840758,0.700377348 8.88823094,0.359425172 C9.00448782,0.252234903 9.00596799,0.253433756 8.91359477,0.129299773 C8.90119308,0.112635796 8.88797226,0.09633147 8.87345812,0.0812393137 C8.78723546,-0.00831458438 8.73292956,-0.0113383371 8.63367291,0.0669996763 C8.59480086,0.0976768441 8.55657548,0.129113289 8.51676935,0.158724808 C7.83132795,0.668647848 7.14525424,1.17785157 6.46135048,1.68954623 C6.42624349,1.71581431 6.39041798,1.76173016 6.38712714,1.8008259 C6.35934907,2.13105505 6.33027767,2.46159057 6.31978724,2.7925257 C6.31323431,2.99938014 6.25822426,3.17133481 6.10411563,3.33138092 C5.86207426,3.58273924 5.64526738,3.85498413 5.4147511,4.1218875 C5.70724709,4.45191683 5.99563315,4.77729731 6.29749868,5.11790314 C6.31024527,5.09592428 6.31559107,5.08288348 6.32435705,5.0722537 Z" id="Shape" opacity="0.899999976"></path>
                </g>
            </g>
        </g>
    </g>
</svg>