<?xml version="1.0" encoding="UTF-8"?>
<svg width="12px" height="12px" viewBox="0 0 12 12" version="1.1" xmlns="http://www.w3.org/2000/svg" xmlns:xlink="http://www.w3.org/1999/xlink">
    <!-- Generator: Sketch 43.1 (39012) - http://www.bohemiancoding.com/sketch -->
    <title>Shape Copy 5</title>
    <desc>Created with Sketch.</desc>
    <defs></defs>
    <g id="Page-1" stroke="none" stroke-width="1" fill="none" fill-rule="evenodd">
        <g id="路书-Tips状态-Copy" transform="translate(-92.000000, -674.000000)" fill="#687372">
            <g id="Group-15" transform="translate(82.000000, 588.000000)">
                <path d="M21.454583,88.8333297 L21.454583,88.8333297 L18.7636859,86.3333337 L17.999955,87.0333249 L19.5273268,88.4333347 C18.8363471,88.666711 18.3636814,89.2666897 18.3636814,90.0000321 C18.3636814,90.9333307 19.1636003,91.6666732 20.1818482,91.6666732 C20.4363651,91.6666732 20.6909571,91.6333357 20.9091059,91.533392 L20.9091059,96.3333452 C20.9091059,96.7000164 20.5818377,97.0000126 20.1818482,97.0000126 C19.7818437,97.0000126 19.4545755,96.7000164 19.4545755,96.3333452 L19.4545755,93.3333005 C19.4545755,92.6000406 18.799979,91.9999931 17.99997,91.9999931 L17.2727273,91.9999931 L17.2727273,87.3333211 C17.2727273,86.5999787 16.6182058,86 15.8181668,86 L11.4545304,86 C10.6545214,86 10,86.5999787 10,87.3333211 L10,98 L17.2727123,98 L17.2727123,92.9999805 L18.3636814,92.9999805 L18.3636814,96.3333452 C18.3636814,97.2666438 19.1636003,98 20.1818482,98 C21.199991,98 22,97.2666438 22,96.3333452 L22,90.0000321 C21.999985,89.5333346 21.7818362,89.1333259 21.454583,88.8333297 L21.454583,88.8333297 Z M15.8181518,94.3630747 L11.4545304,94.3630747 L11.4545304,87.3333211 L15.8181518,87.3333211 L15.8181518,94.3630747 Z M20.1818332,90.6666995 C19.7818287,90.6666995 19.4545605,90.3666758 19.4545605,90.0000321 C19.4545605,89.6333471 19.7818287,89.3333784 20.1818332,89.3333784 C20.5818227,89.3333784 20.9090909,89.6333471 20.9090909,90.0000321 C20.9090909,90.3666758 20.5818377,90.6666995 20.1818332,90.6666995 L20.1818332,90.6666995 Z" id="Shape-Copy-5"></path>
            </g>
        </g>
    </g>
</svg>