<?xml version="1.0" encoding="UTF-8"?>
<svg width="10px" height="12px" viewBox="0 0 10 12" version="1.1" xmlns="http://www.w3.org/2000/svg" xmlns:xlink="http://www.w3.org/1999/xlink">
    <!-- Generator: Sketch 43.1 (39012) - http://www.bohemiancoding.com/sketch -->
    <title>Shape@2x</title>
    <desc>Created with Sketch.</desc>
    <defs></defs>
    <g id="Page-1" stroke="none" stroke-width="1" fill="none" fill-rule="evenodd">
        <g id="路书-Tips状态-Copy" transform="translate(-155.000000, -674.000000)" fill="#687372">
            <g id="Group-15" transform="translate(82.000000, 588.000000)">
                <path d="M80.0019101,89.1917829 L76.288375,89.1917829 L77.3467455,86.5552088 C77.643938,85.8149304 78.6463471,85.8149304 78.9435396,86.5552088 L80.0019101,89.1917829 Z M80.5362174,90.5227092 L75.7541145,90.5227092 L75.2029049,91.8957708 L81.087427,91.8957708 L80.5362174,90.5227092 Z M74.7707906,96.218142 L81.5194945,96.218142 C82.1385313,96.218142 82.5576415,95.5581906 82.3178916,94.9609423 L81.6216876,93.2266834 L74.6686131,93.2266834 L73.9724091,94.9609423 C73.7326436,95.5581906 74.1517849,96.218142 74.7707906,96.218142 Z M82.2422681,96.4789512 L73.7577319,96.4789512 C73.3392611,96.4789512 73,96.776829 73,97.1444075 L73,97.3345437 C73,97.7020537 73.3392611,98 73.7577319,98 L82.2422681,98 C82.6607389,98 83,97.7020537 83,97.3345437 L83,97.1444075 C83.0000156,96.7768427 82.6607545,96.4789512 82.2422681,96.4789512 Z" id="Shape"></path>
            </g>
        </g>
    </g>
</svg>