<?xml version="1.0" encoding="UTF-8"?>
<svg width="12px" height="12px" viewBox="0 0 12 12" version="1.1" xmlns="http://www.w3.org/2000/svg" xmlns:xlink="http://www.w3.org/1999/xlink">
    <!-- Generator: Sketch 43.1 (39012) - http://www.bohemiancoding.com/sketch -->
    <title>Shape Copy 2@2x</title>
    <desc>Created with Sketch.</desc>
    <defs></defs>
    <g id="Page-1" stroke="none" stroke-width="1" fill="none" fill-rule="evenodd">
        <g id="路书-Tips状态-Copy" transform="translate(-185.000000, -674.000000)" fill="#687372">
            <g id="Group-15" transform="translate(82.000000, 588.000000)">
                <path d="M103.474867,94.3346776 C103.791298,95.0659082 104.219631,95.7013174 104.759343,96.2410428 C105.298669,96.7803552 105.932123,97.2086882 106.6587,97.5251193 C107.38587,97.841812 108.164047,98 108.993481,98 C109.822929,98 110.60313,97.841812 111.334691,97.5250505 C112.065977,97.2086882 112.701428,96.7803552 113.240836,96.2409602 C113.780479,95.7013174 114.208812,95.0661836 114.525243,94.3346225 C114.842253,93.6030477 115.000441,92.822915 115.000441,91.9935224 C115.000441,91.1641161 114.842266,90.3856906 114.525243,89.6589068 C114.208812,88.9323158 113.780479,88.2989304 113.240836,87.7595492 C112.701428,87.2199064 112.066225,86.7915596 111.334691,86.4751974 C110.60313,86.1585047 109.822929,86 108.993481,86 C108.164047,86 107.38587,86.1585047 106.6587,86.4751974 C105.932123,86.7915596 105.298669,87.2199064 104.759026,87.7595492 C104.219631,88.2989304 103.791312,88.9323158 103.474881,89.6589068 C103.158188,90.386021 103,91.164116 103,91.9935362 C103,92.8229288 103.158188,93.6031302 103.474867,94.3346776 L103.474867,94.3346776 Z M108.217382,91.3334695 L108.217382,88.9797722 C108.217382,88.9246611 108.245495,88.8698941 108.301446,88.8277244 C108.357384,88.7858301 108.430668,88.7650412 108.503869,88.7650412 L109.497659,88.7650412 C109.571218,88.7650412 109.644489,88.7858301 109.70044,88.8277244 C109.756363,88.8698804 109.784215,88.9246611 109.784215,88.9797722 L109.784215,91.3507339 L109.777772,92.8610371 C109.777496,92.9158178 109.749645,92.9702818 109.693955,93.0122175 C109.638349,93.0540567 109.565367,93.0749144 109.492441,93.0751622 L108.503608,93.0786867 C108.430062,93.0789621 108.356213,93.0581732 108.300001,93.0160035 C108.243719,92.9741091 108.215606,92.918998 108.215606,92.8636529 L108.217382,91.3334695 L108.217382,91.3334695 Z M108.21562,94.2353316 C108.21562,94.1533052 108.243733,94.0712787 108.29967,94.0085955 C108.355952,93.9458847 108.429222,93.9145087 108.502768,93.9145087 L109.497411,93.9145087 C109.570929,93.9145087 109.644131,93.9458847 109.70044,94.0085955 C109.756363,94.0710033 109.78449,94.1533051 109.78449,94.2353316 L109.78449,94.7700044 C109.78449,94.8523613 109.756363,94.9343602 109.70044,94.9970847 C109.644131,95.0597817 109.570929,95.0908273 109.497411,95.0908273 L108.502768,95.0908273 C108.429222,95.0908273 108.355952,95.0594513 108.29967,94.9970847 C108.243733,94.9343465 108.21562,94.8523613 108.21562,94.7700044 L108.21562,94.2353316 L108.21562,94.2353316 Z" id="Shape-Copy-2"></path>
            </g>
        </g>
    </g>
</svg>