<?xml version="1.0" encoding="utf-8"?>
<!-- Generator: Adobe Illustrator 21.0.0, SVG Export Plug-In . SVG Version: 6.00 Build 0)  -->
<svg version="1.1" id="图层_1" xmlns="http://www.w3.org/2000/svg" xmlns:xlink="http://www.w3.org/1999/xlink" x="0px" y="0px"
	 viewBox="0 0 200 200" style="enable-background:new 0 0 200 200;" xml:space="preserve">
<path class="st0" d="M130.5,75.5c10.8-7.5,18.4-19.7,18.4-31c0-25.1-19.5-44.5-44.5-44.5L37.3,0v155.7l75.8,0
	c23.2,0,41.3-18.9,41.3-42.2C154.4,96.7,144.8,82.2,130.5,75.5z M66.2,26.5h34.7c9.6,0,17.4,7.8,17.4,17.4s-7.8,17.4-17.4,17.4H66.2
	V26.5z M106.5,127.9H66.2V93.3h40.3c9.5,0,17.3,7.8,17.3,17.3S116.1,127.9,106.5,127.9z"/>
</svg>
