<?xml version="1.0" encoding="utf-8"?>
<!-- Generator: Adobe Illustrator 21.0.0, SVG Export Plug-In . SVG Version: 6.00 Build 0)  -->
<svg version="1.1" id="图层_1" xmlns="http://www.w3.org/2000/svg" xmlns:xlink="http://www.w3.org/1999/xlink" x="0px" y="0px"
	 viewBox="0 0 200 200" style="enable-background:new 0 0 200 200;" xml:space="preserve">
<style type="text/css">
	.st0{stroke-width:2;stroke-miterlimit:10;}
</style>
<path class="st0" d="M85.2,28.4c0,2.6-0.9,5.2-3.1,7.2L38.9,78.7l43.3,43.1c4,4,4,10.4,0,14.4c-4,4-10.5,4-14.5,0L17.3,85.9
	c-4-4-4-10.4,0-14.4l50.4-50.4c4-4,10.5-4,14.5,0C84.3,23.2,85.2,25.8,85.2,28.4L85.2,28.4z"/>
<path class="st0" d="M114.8,28.4c0-2.6,0.9-5.2,3-7.2c4-4,10.5-4,14.5,0l50.4,50.4c4,4,4,10.4,0,14.4l-50.4,50.3c-4,4-10.5,4-14.5,0
	c-4-4-4-10.4,0-14.4l43.3-43.1l-43.3-43.1C115.7,33.6,114.8,31,114.8,28.4L114.8,28.4z"/>
</svg>
