<?xml version="1.0" encoding="UTF-8"?>
<svg width="17px" height="20px" viewBox="0 0 17 20" version="1.1" xmlns="http://www.w3.org/2000/svg" xmlns:xlink="http://www.w3.org/1999/xlink">
    <!-- Generator: Sketch 43.1 (39012) - http://www.bohemiancoding.com/sketch -->
    <title>Group 4</title>
    <desc>Created with Sketch.</desc>
    <defs></defs>
    <g id="Page-1" stroke="none" stroke-width="1" fill-rule="evenodd">
        <g id="企业主页-企业信息" transform="translate(-279.000000, -81.000000)"  >
            <g id="Group-4" transform="translate(280.000000, 81.500000)">
                <path d="M1.2,3.20069101 L1.2,12.6113454 C1.2,13.3011859 1.74070621,14.242228 2.32035199,14.5626277 L7.43393857,17.3891671 C7.57845082,17.4690464 7.95603602,17.4687987 8.1001002,17.3891671 L13.2136868,14.5626277 C13.7932142,14.2422934 14.3340388,13.2999511 14.3340388,12.6113454 L14.3340388,3.20069101 C14.3340388,2.67061895 13.8881179,2.1314839 13.3826001,2.05469369 L8.5793226,1.32505639 C8.14935151,1.25974204 7.38453308,1.25976546 6.95471617,1.32505639 L2.15143866,2.05469369 C1.64981614,2.13089219 1.2,2.6745068 1.2,3.20069101 Z M0,3.20069101 C0,2.04341816 0.890975882,0.969920314 1.98004351,0.804486531 L6.78332101,0.0748492297 C7.32660262,-0.0076774466 8.20686211,-0.0077646455 8.75071776,0.0748492297 L13.5539953,0.804486531 C14.6475431,0.970600875 15.5340388,2.04015003 15.5340388,3.20069101 L15.5340388,12.6113454 C15.5340388,13.7686182 14.7465523,15.1420571 13.7715818,15.6809729 L8.65799527,18.5075123 C8.16592287,18.7795057 7.37117362,18.7811959 6.8760435,18.5075123 L1.76245692,15.6809729 C0.789078842,15.1429373 0,13.7718864 0,12.6113454 L0,3.20069101 Z" id="Rectangle-6" stroke-width="0.2" fill-rule="nonzero"></path>
                <path d="M8.1560108,8.48313706 L8.1560108,6.46365296 C8.1560108,6.29699651 8.02964396,6.14014337 7.85814609,6.14014337 L7.84009368,6.14014337 C7.67762202,6.14014337 7.54222897,6.29699651 7.54222897,6.46365296 L7.54222897,11.8554794 L5.55646421,11.8554794 L5.55646421,8.23805404 C5.55646421,8.06159427 5.41204496,7.91454445 5.2585995,7.91454445 L5.23152089,7.91454445 C5.06904923,7.91454445 4.93365618,8.06159427 4.93365618,8.23805404 L4.93365618,11.8554794 L4.13032407,11.8554794 C3.96785241,11.8554794 3.83245936,12.0025293 3.83245936,12.178989 L3.83245936,12.1985957 C3.83245936,12.3750555 3.96785241,12.5221053 4.13032407,12.5221053 L11.405444,12.5221053 C11.5679157,12.5221053 11.7033088,12.3750555 11.7033088,12.1985957 L11.7033088,12.178989 C11.7033088,12.0025293 11.5679157,11.8554794 11.405444,11.8554794 L8.1560108,11.8554794 L8.1560108,9.14976288 L10.9180291,9.14976288 C11.0805007,9.14976288 11.2158938,9.00271307 11.2158938,8.82625329 L11.2158938,8.80664665 C11.2158938,8.6399902 11.0805007,8.48313706 10.9180291,8.48313706 L8.1560108,8.48313706 Z M3.82343316,6.72834263 C3.77830214,6.79696587 3.76024973,6.87539244 3.76927593,6.97342565 C3.77830214,7.07145886 3.81440695,7.13027878 3.88661658,7.18909871 C4.01298343,7.29693524 4.1935075,7.2773286 4.30182194,7.1400821 L5.57451662,5.40489431 C5.71893588,5.20882789 5.87238133,5.05197476 6.034853,4.93433491 C6.19732466,4.82649838 6.41395354,4.76767845 6.69376585,4.76767845 L8.82394986,4.76767845 C9.11278837,4.76767845 9.33844345,4.82649838 9.50091512,4.93433491 C9.65436057,5.05197476 9.79877983,5.20882789 9.94319908,5.40489431 L11.2339462,7.1400821 C11.3332344,7.28713192 11.5227847,7.29693524 11.6491515,7.18909871 L11.6581777,7.18909871 C11.7845446,7.08126218 11.802597,6.86558912 11.7033088,6.72834263 L10.4215879,5.00295815 C10.3222996,4.85590834 10.2139852,4.73826849 10.1146969,4.62062864 C10.0154087,4.51279211 9.89806807,4.42456222 9.78072742,4.34613565 C9.50091512,4.16967588 9.17597179,4.10105263 8.82394986,4.10105263 L6.69376585,4.10105263 C6.49518937,4.10105263 6.3146653,4.12065927 6.16121984,4.16967588 C5.86335513,4.24810244 5.61964764,4.40495558 5.40301876,4.62062864 C5.29470432,4.73826849 5.19541608,4.85590834 5.09612784,5.00295815 L3.82343316,6.72834263 Z" id="企" stroke-width="0.5"></path>
            </g>
        </g>
    </g>
</svg>