<?xml version="1.0" encoding="utf-8"?>
<!-- Generator: Adobe Illustrator 21.0.0, SVG Export Plug-In . SVG Version: 6.00 Build 0)  -->
<svg version="1.1" id="图层_1" xmlns="http://www.w3.org/2000/svg" xmlns:xlink="http://www.w3.org/1999/xlink" x="0px" y="0px"
	 viewBox="0 0 200 200" style="enable-background:new 0 0 200 200;" xml:space="preserve">
<style type="text/css">
	.st1{fill:#FFFFFF;}
</style>
<path class="st0" d="M178.2,139c0,9.3-7.7,16.7-17.2,16.7H39.6c-9.5,0-17.1-7.4-17.1-16.7V16.7C22.5,7.4,30.2,0,39.6,0H161
	c9.5,0,17.2,7.4,17.2,16.7V139z"/>
<path class="st1" d="M132.5,129.1H68.4c-0.5-12,0.7-18,5.3-25.8c4.6-7.8,20.8-19.7,24-21.7c3.2-1.9,12.2-10,12.2-10
	c12.4-13.2,8.5-33.3-7.4-35.8c-15.8-2.4-29.8,12.2-29.8,12.2V35.8c6-6.7,21.9-14.4,38.4-9.2s21.4,20.8,17.8,35.3
	c-3.5,14.4-20.6,27-23.6,28.5c-3,1.6-15.9,11.4-19.6,15.6c-3.7,4.1-3.7,11.8-3.7,11.8h50.6L132.5,129.1L132.5,129.1z"/>
</svg>
