<?xml version="1.0" encoding="utf-8"?>
<!-- Generator: Adobe Illustrator 21.0.0, SVG Export Plug-In . SVG Version: 6.00 Build 0)  -->
<svg version="1.1" id="图层_1" xmlns="http://www.w3.org/2000/svg" xmlns:xlink="http://www.w3.org/1999/xlink" x="0px" y="0px"
	 viewBox="0 0 200.2 200" style="enable-background:new 0 0 200.2 200;" xml:space="preserve">
<path class="st0" d="M28.3,82.7h30.8c-7.1,37.4-37.8,44.3-39.6,44.7c-8.5,1.6-14,8.9-12.1,16.3c1.8,7.4,10.3,12.3,18.9,10.7
	c1.8-0.3,18.1-3.6,34.3-16.2c14-11,30.5-31.5,31.9-67.1c0-0.4,0.1-0.8,0.1-1.2V18.4C92.4,8.2,82.9,0,71.1,0H28.3
	C16.5,0,7.1,8.2,7.1,18.4v45.9C7.1,74.4,16.5,82.7,28.3,82.7z"/>
<path class="st0" d="M127.9,82.7h30.8c-7.1,37.4-37.8,44.3-39.6,44.7c-8.5,1.6-14,8.9-12.1,16.3c1.8,7.4,10.3,12.3,18.9,10.7
	c1.8-0.3,18.1-3.6,34.3-16.2c14-11,30.5-31.5,31.9-67.1c0-0.4,0.1-0.8,0.1-1.2V18.4C192,8.2,182.5,0,170.8,0h-42.9
	c-11.7,0-21.2,8.2-21.2,18.4v45.9C106.6,74.4,116.2,82.7,127.9,82.7z"/>
</svg>
