<?xml version="1.0" encoding="utf-8"?>
<!-- Generator: Adobe Illustrator 21.0.0, SVG Export Plug-In . SVG Version: 6.00 Build 0)  -->
<svg version="1.1" id="图层_1" xmlns="http://www.w3.org/2000/svg" xmlns:xlink="http://www.w3.org/1999/xlink" x="0px" y="0px"
	 viewBox="0 0 200 200" style="enable-background:new 0 0 200 200;" xml:space="preserve">
<path class="st0" d="M169.1,15V9.3c0-4.9-5.3-8.9-11.8-8.9H75c-6.5,0-11.8,4-11.8,8.9v8.9C63.2,23,68.5,27,75,27
	c10,0,19.7,3.9,17.3,11l-22.8,84.8c-1.8,5.8-8.6,6.3-15.7,6.3H39.7c-6.5,0-11.8,4-11.8,8.9v8.9c0,4.9,5.3,8.9,11.8,8.9H122
	c6.5,0,11.8-4,11.8-8.9V138c0-4.9-5.3-8.9-11.8-8.9c-10,0-20.3-4.5-18-11.6l23.5-83.8c1.8-5.8,8.6-6.7,15.7-6.7h10
	C162,27,169.1,21.7,169.1,15L169.1,15z"/>
</svg>
