<?xml version="1.0" encoding="utf-8"?>
<!-- Generator: Adobe Illustrator 21.0.0, SVG Export Plug-In . SVG Version: 6.00 Build 0)  -->
<svg version="1.1" id="图层_1" xmlns="http://www.w3.org/2000/svg" xmlns:xlink="http://www.w3.org/1999/xlink" x="0px" y="0px"
	 viewBox="0 0 200 200" style="enable-background:new 0 0 200 200;" xml:space="preserve">
<path class="st0" d="M15,16.3C13.6,27.3,23,36.6,34,35.2c7.5-1,13.6-7,14.5-14.5c1.4-11-7.9-20.4-18.9-18.9C22.1,2.7,16,8.8,15,16.3
	z"/>
<path class="st0" d="M15,69.5C13.6,80.5,23,89.8,34,88.4c7.5-1,13.6-7,14.5-14.5c1.4-11-7.9-20.4-18.9-18.9
	C22.1,55.9,16,61.9,15,69.5z"/>
<path class="st0" d="M14.9,124.8c0,9.5,8,17.3,17.6,16.9c8.7-0.3,15.9-7.5,16.2-16.2c0.4-9.6-7.3-17.6-16.9-17.6
	C22.5,108.1,14.9,115.5,14.9,124.8z"/>
<path class="st0" d="M65.9,30.4h97.9c3.1,0,6.1-4.8,6.1-11.9s-2.4-11.9-6.1-11.9H65.9c-3.1,0-6.1,4.8-6.1,11.9S62.3,30.4,65.9,30.4z
	"/>
<path class="st0" d="M65.9,83.6h97.9c3.1,0,6.1-4.8,6.1-11.9c0-7.2-2.4-11.9-6.1-11.9H65.9c-3.1,0-6.1,4.8-6.1,11.9
	C59.8,78.8,62.3,83.6,65.9,83.6z"/>
<path class="st0" d="M65.9,136.8h97.9c3.1,0,6.1-4.8,6.1-11.9s-2.4-11.9-6.1-11.9H65.9c-3.1,0-6.1,4.8-6.1,11.9
	S62.3,136.8,65.9,136.8z"/>
</svg>
