<?xml version="1.0" encoding="UTF-8"?>
<svg width="16px" height="16px" viewBox="0 0 16 16" version="1.1" xmlns="http://www.w3.org/2000/svg" xmlns:xlink="http://www.w3.org/1999/xlink">
    <!-- Generator: Sketch 43.1 (39012) - http://www.bohemiancoding.com/sketch -->
    <title>settings-1</title>
    <desc>Created with Sketch.</desc>
    <defs></defs>
    <g id="Page-1" stroke="none" stroke-width="1"  fill-rule="evenodd">
        <g id="领队管理-无领队时" transform="translate(-40.000000, -207.000000)"  stroke-width="0.2" >
            <path d="M41.4939759,213.551724 C41.2168675,213.551724 41,213.768966 41,214.046552 L41,215.977586 C41,216.255172 41.2168675,216.472414 41.4939759,216.472414 L42.3975904,216.472414 C42.5301205,216.991379 42.7349398,217.486207 43.0120482,217.944828 L42.3855422,218.572414 C42.1927711,218.765517 42.1927711,219.07931 42.3855422,219.272414 L43.746988,220.636207 C43.939759,220.82931 44.253012,220.82931 44.4457831,220.636207 L45.0843373,219.996552 C45.5421687,220.262069 46.0361446,220.467241 46.5542169,220.6 L46.5542169,221.505172 C46.5542169,221.782759 46.7710843,222 47.0481928,222 L48.9759036,222 C49.253012,222 49.4698795,221.782759 49.4698795,221.505172 L49.4698795,220.587931 C49.9879518,220.455172 50.4698795,220.25 50.9277108,219.984483 L51.5783133,220.636207 C51.7710843,220.82931 52.0843373,220.82931 52.2771084,220.636207 L53.6385542,219.272414 C53.8313253,219.07931 53.8313253,218.765517 53.6385542,218.572414 L52.9879518,217.92069 C53.253012,217.462069 53.4578313,216.97931 53.5903614,216.460345 L54.5060241,216.460345 C54.7831325,216.460345 55,216.243103 55,215.965517 L55,214.034483 C55,213.756897 54.7831325,213.539655 54.5060241,213.539655 L53.5903614,213.539655 C53.4578313,213.02069 53.253012,212.537931 52.9879518,212.07931 L53.6385542,211.427586 C53.8313253,211.234483 53.8313253,210.92069 53.6385542,210.727586 L52.2650602,209.375862 C52.0722892,209.182759 51.7590361,209.182759 51.5662651,209.375862 L50.9277108,210.015517 C50.4698795,209.75 49.9759036,209.544828 49.4578313,209.4 L49.4578313,208.494828 C49.4578313,208.217241 49.2409639,208 48.9638554,208 L47.0361446,208 C46.7590361,208 46.5421687,208.217241 46.5421687,208.494828 L46.5421687,209.4 C46.0240964,209.532759 45.5301205,209.737931 45.0722892,210.003448 L44.4337349,209.363793 C44.2409639,209.17069 43.9277108,209.17069 43.7349398,209.363793 L42.373494,210.739655 C42.1807229,210.932759 42.1807229,211.246552 42.373494,211.439655 L43,212.067241 C42.7228916,212.525862 42.5180723,213.02069 42.3855422,213.551724 L41.4939759,213.551724 L41.4939759,213.551724 Z M43.2771084,214.131034 C43.3975904,213.455172 43.6626506,212.839655 44.0361446,212.284483 C44.1686747,212.091379 44.1445783,211.825862 43.9759036,211.656897 L43.4216867,211.089655 L44.0843373,210.425862 L44.6506024,210.993103 C44.8192771,211.162069 45.0843373,211.186207 45.2771084,211.053448 C45.8313253,210.667241 46.4578313,210.413793 47.1204819,210.293103 C47.3493976,210.244828 47.5301205,210.051724 47.5301205,209.810345 L47.5301205,209.001724 L48.4698795,209.001724 L48.4698795,209.810345 C48.4698795,210.051724 48.6385542,210.256897 48.8674699,210.293103 C49.5301205,210.413793 50.1445783,210.67931 50.6987952,211.053448 C50.8915663,211.186207 51.1566265,211.162069 51.3253012,210.993103 L51.9036145,210.413793 L52.5662651,211.077586 L51.9879518,211.656897 C51.8192771,211.825862 51.7951807,212.091379 51.9277108,212.284483 C52.3012048,212.839655 52.5542169,213.455172 52.686747,214.118966 C52.7349398,214.348276 52.939759,214.52931 53.1686747,214.52931 L53.9879518,214.52931 L53.9879518,215.47069 L53.1686747,215.47069 C52.9277108,215.47069 52.7228916,215.639655 52.686747,215.868966 C52.5662651,216.532759 52.313253,217.148276 51.9277108,217.703448 C51.7951807,217.896552 51.8192771,218.162069 51.9879518,218.331034 L52.5662651,218.910345 L51.9036145,219.574138 L51.3253012,218.994828 C51.1566265,218.825862 50.8915663,218.801724 50.6987952,218.934483 C50.1445783,219.32069 49.5301205,219.574138 48.8674699,219.694828 C48.6385542,219.743103 48.4698795,219.948276 48.4698795,220.177586 L48.4698795,220.986207 L47.5301205,220.986207 L47.5301205,220.177586 C47.5301205,219.936207 47.3614458,219.731034 47.1204819,219.694828 C46.4457831,219.574138 45.8313253,219.32069 45.2771084,218.934483 C45.0843373,218.801724 44.8192771,218.825862 44.6506024,218.994828 L44.0843373,219.562069 L43.4216867,218.934483 L43.9879518,218.367241 C44.1566265,218.198276 44.1807229,217.932759 44.0481928,217.739655 C43.6626506,217.184483 43.4096386,216.556897 43.2771084,215.893103 C43.2289157,215.663793 43.0361446,215.494828 42.7951807,215.494828 L42,215.494828 L42,214.553448 L42.7951807,214.553448 C43.0240964,214.541379 43.2289157,214.372414 43.2771084,214.131034 L43.2771084,214.131034 Z M47.9879518,218.475862 C49.8554217,218.475862 51.373494,216.955172 51.373494,215.084483 C51.373494,213.213793 49.8554217,211.693103 47.9879518,211.693103 C46.1204819,211.693103 44.6024096,213.213793 44.6024096,215.084483 C44.6024096,216.955172 46.1204819,218.475862 47.9879518,218.475862 L47.9879518,218.475862 Z M47.9879518,212.682759 C49.313253,212.682759 50.3855422,213.756897 50.3855422,215.084483 C50.3855422,216.412069 49.313253,217.486207 47.9879518,217.486207 C46.6626506,217.486207 45.5903614,216.412069 45.5903614,215.084483 C45.5903614,213.756897 46.6626506,212.682759 47.9879518,212.682759 L47.9879518,212.682759 Z" id="settings-1"></path>
        </g>
    </g>
</svg>