<?xml version="1.0" encoding="utf-8"?>
<!-- Generator: Adobe Illustrator 21.0.0, SVG Export Plug-In . SVG Version: 6.00 Build 0)  -->
<svg version="1.1" id="图层_1" xmlns="http://www.w3.org/2000/svg" xmlns:xlink="http://www.w3.org/1999/xlink" x="0px" y="0px"
	 viewBox="0 0 200 200" style="enable-background:new 0 0 200 200;" xml:space="preserve">
<path class="st0" d="M175,130.7H29.3c-3.2,0-5.9,2.9-5.9,6.3v12.4c0,3.3,2.8,6.3,5.9,6.3h145.6c3.2,0,5.9-2.9,5.9-6.3v-12.4
	C180.8,133.6,178.1,130.7,175,130.7z"/>
<path class="st0" d="M99.2,117.7c-31-1.5-55.2-27-55.2-56.5V7.9C44,3.6,47.8,0,52.3,0h8.3c4.5,0,8.3,3.6,8.3,7.9v53.7
	c0,16.8,13.3,31.4,31,32.5c19.5,1.2,35.2-13.4,35.2-31.4V7.9c0-4.3,3.8-7.9,8.3-7.9h8.3c4.5,0,8.3,3.6,8.3,7.9v54.9
	C160.1,94.1,132.4,119.2,99.2,117.7L99.2,117.7z"/>
</svg>
